<?xml version="1.0" encoding="UTF-8" standalone="no"?>
<!DOCTYPE svg PUBLIC "-//W3C//DTD SVG 1.1//EN"
 "http://www.w3.org/Graphics/SVG/1.1/DTD/svg11.dtd">
<!-- Generated by graphviz version 2.40.1 (0)
 -->
<!-- Title: snakemake_dag Pages: 1 -->
<svg width="3366pt" height="188pt"
 viewBox="0.00 0.00 3366.00 188.00" xmlns="http://www.w3.org/2000/svg" xmlns:xlink="http://www.w3.org/1999/xlink">
<g id="graph0" class="graph" transform="scale(1 1) rotate(0) translate(4 184)">
<title>snakemake_dag</title>
<polygon fill="#ffffff" stroke="transparent" points="-4,4 -4,-184 3362,-184 3362,4 -4,4"/>
<!-- 0 -->
<g id="node1" class="node">
<title>0</title>
<path fill="none" stroke="#56d8a9" stroke-width="2" d="M1686,-36C1686,-36 1656,-36 1656,-36 1650,-36 1644,-30 1644,-24 1644,-24 1644,-12 1644,-12 1644,-6 1650,0 1656,0 1656,0 1686,0 1686,0 1692,0 1698,-6 1698,-12 1698,-12 1698,-24 1698,-24 1698,-30 1692,-36 1686,-36"/>
<text text-anchor="middle" x="1671" y="-15.5" font-family="sans" font-size="10.00" fill="#000000">all</text>
</g>
<!-- 1 -->
<g id="node2" class="node">
<title>1</title>
<path fill="none" stroke="#afd856" stroke-width="2" d="M180,-108C180,-108 12,-108 12,-108 6,-108 0,-102 0,-96 0,-96 0,-84 0,-84 0,-78 6,-72 12,-72 12,-72 180,-72 180,-72 186,-72 192,-78 192,-84 192,-84 192,-96 192,-96 192,-102 186,-108 180,-108"/>
<text text-anchor="middle" x="96" y="-93" font-family="sans" font-size="10.00" fill="#000000">fastqc_raw</text>
<text text-anchor="middle" x="96" y="-82" font-family="sans" font-size="10.00" fill="#000000">accession: Int&#45;01_S42_L005_R1_001</text>
</g>
<!-- 1&#45;&gt;0 -->
<g id="edge1" class="edge">
<title>1&#45;&gt;0</title>
<path fill="none" stroke="#c0c0c0" stroke-width="2" d="M192.0597,-73.0063C195.0709,-72.6422 198.0565,-72.305 201,-72 491.1197,-41.9388 1433.8529,-22.531 1633.5987,-18.6984"/>
<polygon fill="#c0c0c0" stroke="#c0c0c0" stroke-width="2" points="1633.9293,-22.1928 1643.8607,-18.5027 1633.7958,-15.1941 1633.9293,-22.1928"/>
</g>
<!-- 2 -->
<g id="node3" class="node">
<title>2</title>
<path fill="none" stroke="#d85656" stroke-width="2" d="M174,-180C174,-180 18,-180 18,-180 12,-180 6,-174 6,-168 6,-168 6,-156 6,-156 6,-150 12,-144 18,-144 18,-144 174,-144 174,-144 180,-144 186,-150 186,-156 186,-156 186,-168 186,-168 186,-174 180,-180 174,-180"/>
<text text-anchor="middle" x="96" y="-165" font-family="sans" font-size="10.00" fill="#000000">cp_fq</text>
<text text-anchor="middle" x="96" y="-154" font-family="sans" font-size="10.00" fill="#000000">sample: Int&#45;01_S42_L005_R1_001</text>
</g>
<!-- 2&#45;&gt;1 -->
<g id="edge17" class="edge">
<title>2&#45;&gt;1</title>
<path fill="none" stroke="#c0c0c0" stroke-width="2" d="M96,-143.8314C96,-136.131 96,-126.9743 96,-118.4166"/>
<polygon fill="#c0c0c0" stroke="#c0c0c0" stroke-width="2" points="99.5001,-118.4132 96,-108.4133 92.5001,-118.4133 99.5001,-118.4132"/>
</g>
<!-- 3 -->
<g id="node4" class="node">
<title>3</title>
<path fill="none" stroke="#afd856" stroke-width="2" d="M390,-108C390,-108 222,-108 222,-108 216,-108 210,-102 210,-96 210,-96 210,-84 210,-84 210,-78 216,-72 222,-72 222,-72 390,-72 390,-72 396,-72 402,-78 402,-84 402,-84 402,-96 402,-96 402,-102 396,-108 390,-108"/>
<text text-anchor="middle" x="306" y="-93" font-family="sans" font-size="10.00" fill="#000000">fastqc_raw</text>
<text text-anchor="middle" x="306" y="-82" font-family="sans" font-size="10.00" fill="#000000">accession: Int&#45;01_S42_L005_R2_001</text>
</g>
<!-- 3&#45;&gt;0 -->
<g id="edge2" class="edge">
<title>3&#45;&gt;0</title>
<path fill="none" stroke="#c0c0c0" stroke-width="2" d="M402.0622,-73.03C405.0726,-72.659 408.0575,-72.314 411,-72 657.2824,-45.72 1452.3598,-23.7146 1633.8681,-18.954"/>
<polygon fill="#c0c0c0" stroke="#c0c0c0" stroke-width="2" points="1634.0704,-22.45 1643.9756,-18.6901 1633.8876,-15.4524 1634.0704,-22.45"/>
</g>
<!-- 4 -->
<g id="node5" class="node">
<title>4</title>
<path fill="none" stroke="#d85656" stroke-width="2" d="M384,-180C384,-180 228,-180 228,-180 222,-180 216,-174 216,-168 216,-168 216,-156 216,-156 216,-150 222,-144 228,-144 228,-144 384,-144 384,-144 390,-144 396,-150 396,-156 396,-156 396,-168 396,-168 396,-174 390,-180 384,-180"/>
<text text-anchor="middle" x="306" y="-165" font-family="sans" font-size="10.00" fill="#000000">cp_fq</text>
<text text-anchor="middle" x="306" y="-154" font-family="sans" font-size="10.00" fill="#000000">sample: Int&#45;01_S42_L005_R2_001</text>
</g>
<!-- 4&#45;&gt;3 -->
<g id="edge18" class="edge">
<title>4&#45;&gt;3</title>
<path fill="none" stroke="#c0c0c0" stroke-width="2" d="M306,-143.8314C306,-136.131 306,-126.9743 306,-118.4166"/>
<polygon fill="#c0c0c0" stroke="#c0c0c0" stroke-width="2" points="309.5001,-118.4132 306,-108.4133 302.5001,-118.4133 309.5001,-118.4132"/>
</g>
<!-- 5 -->
<g id="node6" class="node">
<title>5</title>
<path fill="none" stroke="#afd856" stroke-width="2" d="M600,-108C600,-108 432,-108 432,-108 426,-108 420,-102 420,-96 420,-96 420,-84 420,-84 420,-78 426,-72 432,-72 432,-72 600,-72 600,-72 606,-72 612,-78 612,-84 612,-84 612,-96 612,-96 612,-102 606,-108 600,-108"/>
<text text-anchor="middle" x="516" y="-93" font-family="sans" font-size="10.00" fill="#000000">fastqc_raw</text>
<text text-anchor="middle" x="516" y="-82" font-family="sans" font-size="10.00" fill="#000000">accession: Int&#45;02_S43_L005_R1_001</text>
</g>
<!-- 5&#45;&gt;0 -->
<g id="edge3" class="edge">
<title>5&#45;&gt;0</title>
<path fill="none" stroke="#c0c0c0" stroke-width="2" d="M612.0658,-73.0632C615.0752,-72.6826 618.0589,-72.3266 621,-72 1015.3359,-28.2154 1497.0063,-19.8535 1633.4152,-18.3268"/>
<polygon fill="#c0c0c0" stroke="#c0c0c0" stroke-width="2" points="1633.7671,-21.8233 1643.7293,-18.2172 1633.6926,-14.8237 1633.7671,-21.8233"/>
</g>
<!-- 6 -->
<g id="node7" class="node">
<title>6</title>
<path fill="none" stroke="#d85656" stroke-width="2" d="M594,-180C594,-180 438,-180 438,-180 432,-180 426,-174 426,-168 426,-168 426,-156 426,-156 426,-150 432,-144 438,-144 438,-144 594,-144 594,-144 600,-144 606,-150 606,-156 606,-156 606,-168 606,-168 606,-174 600,-180 594,-180"/>
<text text-anchor="middle" x="516" y="-165" font-family="sans" font-size="10.00" fill="#000000">cp_fq</text>
<text text-anchor="middle" x="516" y="-154" font-family="sans" font-size="10.00" fill="#000000">sample: Int&#45;02_S43_L005_R1_001</text>
</g>
<!-- 6&#45;&gt;5 -->
<g id="edge19" class="edge">
<title>6&#45;&gt;5</title>
<path fill="none" stroke="#c0c0c0" stroke-width="2" d="M516,-143.8314C516,-136.131 516,-126.9743 516,-118.4166"/>
<polygon fill="#c0c0c0" stroke="#c0c0c0" stroke-width="2" points="519.5001,-118.4132 516,-108.4133 512.5001,-118.4133 519.5001,-118.4132"/>
</g>
<!-- 7 -->
<g id="node8" class="node">
<title>7</title>
<path fill="none" stroke="#afd856" stroke-width="2" d="M810,-108C810,-108 642,-108 642,-108 636,-108 630,-102 630,-96 630,-96 630,-84 630,-84 630,-78 636,-72 642,-72 642,-72 810,-72 810,-72 816,-72 822,-78 822,-84 822,-84 822,-96 822,-96 822,-102 816,-108 810,-108"/>
<text text-anchor="middle" x="726" y="-93" font-family="sans" font-size="10.00" fill="#000000">fastqc_raw</text>
<text text-anchor="middle" x="726" y="-82" font-family="sans" font-size="10.00" fill="#000000">accession: Int&#45;02_S43_L005_R2_001</text>
</g>
<!-- 7&#45;&gt;0 -->
<g id="edge4" class="edge">
<title>7&#45;&gt;0</title>
<path fill="none" stroke="#c0c0c0" stroke-width="2" d="M822.0715,-73.1129C825.0792,-72.7179 828.061,-72.3454 831,-72 1139.5763,-35.7347 1514.9946,-22.4603 1633.3844,-19.0025"/>
<polygon fill="#c0c0c0" stroke="#c0c0c0" stroke-width="2" points="1633.8152,-22.4917 1643.711,-18.7069 1633.6149,-15.4945 1633.8152,-22.4917"/>
</g>
<!-- 8 -->
<g id="node9" class="node">
<title>8</title>
<path fill="none" stroke="#d85656" stroke-width="2" d="M804,-180C804,-180 648,-180 648,-180 642,-180 636,-174 636,-168 636,-168 636,-156 636,-156 636,-150 642,-144 648,-144 648,-144 804,-144 804,-144 810,-144 816,-150 816,-156 816,-156 816,-168 816,-168 816,-174 810,-180 804,-180"/>
<text text-anchor="middle" x="726" y="-165" font-family="sans" font-size="10.00" fill="#000000">cp_fq</text>
<text text-anchor="middle" x="726" y="-154" font-family="sans" font-size="10.00" fill="#000000">sample: Int&#45;02_S43_L005_R2_001</text>
</g>
<!-- 8&#45;&gt;7 -->
<g id="edge20" class="edge">
<title>8&#45;&gt;7</title>
<path fill="none" stroke="#c0c0c0" stroke-width="2" d="M726,-143.8314C726,-136.131 726,-126.9743 726,-118.4166"/>
<polygon fill="#c0c0c0" stroke="#c0c0c0" stroke-width="2" points="729.5001,-118.4132 726,-108.4133 722.5001,-118.4133 729.5001,-118.4132"/>
</g>
<!-- 9 -->
<g id="node10" class="node">
<title>9</title>
<path fill="none" stroke="#afd856" stroke-width="2" d="M1020,-108C1020,-108 852,-108 852,-108 846,-108 840,-102 840,-96 840,-96 840,-84 840,-84 840,-78 846,-72 852,-72 852,-72 1020,-72 1020,-72 1026,-72 1032,-78 1032,-84 1032,-84 1032,-96 1032,-96 1032,-102 1026,-108 1020,-108"/>
<text text-anchor="middle" x="936" y="-93" font-family="sans" font-size="10.00" fill="#000000">fastqc_raw</text>
<text text-anchor="middle" x="936" y="-82" font-family="sans" font-size="10.00" fill="#000000">accession: Int&#45;03_S44_L005_R1_001</text>
</g>
<!-- 9&#45;&gt;0 -->
<g id="edge5" class="edge">
<title>9&#45;&gt;0</title>
<path fill="none" stroke="#c0c0c0" stroke-width="2" d="M1032.0817,-73.1954C1035.0865,-72.7766 1038.0649,-72.3767 1041,-72 1265.0656,-43.2435 1535.9912,-25.8254 1633.6543,-20.0987"/>
<polygon fill="#c0c0c0" stroke="#c0c0c0" stroke-width="2" points="1634.1154,-23.5779 1643.8956,-19.5039 1633.7095,-16.5896 1634.1154,-23.5779"/>
</g>
<!-- 10 -->
<g id="node11" class="node">
<title>10</title>
<path fill="none" stroke="#d85656" stroke-width="2" d="M1014,-180C1014,-180 858,-180 858,-180 852,-180 846,-174 846,-168 846,-168 846,-156 846,-156 846,-150 852,-144 858,-144 858,-144 1014,-144 1014,-144 1020,-144 1026,-150 1026,-156 1026,-156 1026,-168 1026,-168 1026,-174 1020,-180 1014,-180"/>
<text text-anchor="middle" x="936" y="-165" font-family="sans" font-size="10.00" fill="#000000">cp_fq</text>
<text text-anchor="middle" x="936" y="-154" font-family="sans" font-size="10.00" fill="#000000">sample: Int&#45;03_S44_L005_R1_001</text>
</g>
<!-- 10&#45;&gt;9 -->
<g id="edge21" class="edge">
<title>10&#45;&gt;9</title>
<path fill="none" stroke="#c0c0c0" stroke-width="2" d="M936,-143.8314C936,-136.131 936,-126.9743 936,-118.4166"/>
<polygon fill="#c0c0c0" stroke="#c0c0c0" stroke-width="2" points="939.5001,-118.4132 936,-108.4133 932.5001,-118.4133 939.5001,-118.4132"/>
</g>
<!-- 11 -->
<g id="node12" class="node">
<title>11</title>
<path fill="none" stroke="#afd856" stroke-width="2" d="M1230,-108C1230,-108 1062,-108 1062,-108 1056,-108 1050,-102 1050,-96 1050,-96 1050,-84 1050,-84 1050,-78 1056,-72 1062,-72 1062,-72 1230,-72 1230,-72 1236,-72 1242,-78 1242,-84 1242,-84 1242,-96 1242,-96 1242,-102 1236,-108 1230,-108"/>
<text text-anchor="middle" x="1146" y="-93" font-family="sans" font-size="10.00" fill="#000000">fastqc_raw</text>
<text text-anchor="middle" x="1146" y="-82" font-family="sans" font-size="10.00" fill="#000000">accession: Int&#45;03_S44_L005_R2_001</text>
</g>
<!-- 11&#45;&gt;0 -->
<g id="edge6" class="edge">
<title>11&#45;&gt;0</title>
<path fill="none" stroke="#c0c0c0" stroke-width="2" d="M1242.1044,-73.3591C1245.1027,-72.893 1248.0735,-72.4388 1251,-72 1392.0178,-50.8568 1560.4489,-30.7537 1633.8024,-22.2518"/>
<polygon fill="#c0c0c0" stroke="#c0c0c0" stroke-width="2" points="1634.3883,-25.7075 1643.9205,-21.0829 1633.5849,-18.7538 1634.3883,-25.7075"/>
</g>
<!-- 12 -->
<g id="node13" class="node">
<title>12</title>
<path fill="none" stroke="#d85656" stroke-width="2" d="M1224,-180C1224,-180 1068,-180 1068,-180 1062,-180 1056,-174 1056,-168 1056,-168 1056,-156 1056,-156 1056,-150 1062,-144 1068,-144 1068,-144 1224,-144 1224,-144 1230,-144 1236,-150 1236,-156 1236,-156 1236,-168 1236,-168 1236,-174 1230,-180 1224,-180"/>
<text text-anchor="middle" x="1146" y="-165" font-family="sans" font-size="10.00" fill="#000000">cp_fq</text>
<text text-anchor="middle" x="1146" y="-154" font-family="sans" font-size="10.00" fill="#000000">sample: Int&#45;03_S44_L005_R2_001</text>
</g>
<!-- 12&#45;&gt;11 -->
<g id="edge22" class="edge">
<title>12&#45;&gt;11</title>
<path fill="none" stroke="#c0c0c0" stroke-width="2" d="M1146,-143.8314C1146,-136.131 1146,-126.9743 1146,-118.4166"/>
<polygon fill="#c0c0c0" stroke="#c0c0c0" stroke-width="2" points="1149.5001,-118.4132 1146,-108.4133 1142.5001,-118.4133 1149.5001,-118.4132"/>
</g>
<!-- 13 -->
<g id="node14" class="node">
<title>13</title>
<path fill="none" stroke="#afd856" stroke-width="2" d="M1440,-108C1440,-108 1272,-108 1272,-108 1266,-108 1260,-102 1260,-96 1260,-96 1260,-84 1260,-84 1260,-78 1266,-72 1272,-72 1272,-72 1440,-72 1440,-72 1446,-72 1452,-78 1452,-84 1452,-84 1452,-96 1452,-96 1452,-102 1446,-108 1440,-108"/>
<text text-anchor="middle" x="1356" y="-93" font-family="sans" font-size="10.00" fill="#000000">fastqc_raw</text>
<text text-anchor="middle" x="1356" y="-82" font-family="sans" font-size="10.00" fill="#000000">accession: Int&#45;04_S45_L005_R1_001</text>
</g>
<!-- 13&#45;&gt;0 -->
<g id="edge7" class="edge">
<title>13&#45;&gt;0</title>
<path fill="none" stroke="#c0c0c0" stroke-width="2" d="M1435.0812,-71.9243C1498.7144,-57.3796 1585.2758,-37.5941 1633.8992,-26.4802"/>
<polygon fill="#c0c0c0" stroke="#c0c0c0" stroke-width="2" points="1634.7085,-29.8855 1643.6772,-24.2452 1633.1487,-23.0615 1634.7085,-29.8855"/>
</g>
<!-- 14 -->
<g id="node15" class="node">
<title>14</title>
<path fill="none" stroke="#d85656" stroke-width="2" d="M1434,-180C1434,-180 1278,-180 1278,-180 1272,-180 1266,-174 1266,-168 1266,-168 1266,-156 1266,-156 1266,-150 1272,-144 1278,-144 1278,-144 1434,-144 1434,-144 1440,-144 1446,-150 1446,-156 1446,-156 1446,-168 1446,-168 1446,-174 1440,-180 1434,-180"/>
<text text-anchor="middle" x="1356" y="-165" font-family="sans" font-size="10.00" fill="#000000">cp_fq</text>
<text text-anchor="middle" x="1356" y="-154" font-family="sans" font-size="10.00" fill="#000000">sample: Int&#45;04_S45_L005_R1_001</text>
</g>
<!-- 14&#45;&gt;13 -->
<g id="edge23" class="edge">
<title>14&#45;&gt;13</title>
<path fill="none" stroke="#c0c0c0" stroke-width="2" d="M1356,-143.8314C1356,-136.131 1356,-126.9743 1356,-118.4166"/>
<polygon fill="#c0c0c0" stroke="#c0c0c0" stroke-width="2" points="1359.5001,-118.4132 1356,-108.4133 1352.5001,-118.4133 1359.5001,-118.4132"/>
</g>
<!-- 15 -->
<g id="node16" class="node">
<title>15</title>
<path fill="none" stroke="#afd856" stroke-width="2" d="M1650,-108C1650,-108 1482,-108 1482,-108 1476,-108 1470,-102 1470,-96 1470,-96 1470,-84 1470,-84 1470,-78 1476,-72 1482,-72 1482,-72 1650,-72 1650,-72 1656,-72 1662,-78 1662,-84 1662,-84 1662,-96 1662,-96 1662,-102 1656,-108 1650,-108"/>
<text text-anchor="middle" x="1566" y="-93" font-family="sans" font-size="10.00" fill="#000000">fastqc_raw</text>
<text text-anchor="middle" x="1566" y="-82" font-family="sans" font-size="10.00" fill="#000000">accession: Int&#45;04_S45_L005_R2_001</text>
</g>
<!-- 15&#45;&gt;0 -->
<g id="edge8" class="edge">
<title>15&#45;&gt;0</title>
<path fill="none" stroke="#c0c0c0" stroke-width="2" d="M1592.4959,-71.8314C1605.6774,-62.7927 1621.7847,-51.7476 1635.9711,-42.0198"/>
<polygon fill="#c0c0c0" stroke="#c0c0c0" stroke-width="2" points="1638.2446,-44.7047 1644.5125,-36.1628 1634.2859,-38.9316 1638.2446,-44.7047"/>
</g>
<!-- 16 -->
<g id="node17" class="node">
<title>16</title>
<path fill="none" stroke="#d85656" stroke-width="2" d="M1644,-180C1644,-180 1488,-180 1488,-180 1482,-180 1476,-174 1476,-168 1476,-168 1476,-156 1476,-156 1476,-150 1482,-144 1488,-144 1488,-144 1644,-144 1644,-144 1650,-144 1656,-150 1656,-156 1656,-156 1656,-168 1656,-168 1656,-174 1650,-180 1644,-180"/>
<text text-anchor="middle" x="1566" y="-165" font-family="sans" font-size="10.00" fill="#000000">cp_fq</text>
<text text-anchor="middle" x="1566" y="-154" font-family="sans" font-size="10.00" fill="#000000">sample: Int&#45;04_S45_L005_R2_001</text>
</g>
<!-- 16&#45;&gt;15 -->
<g id="edge24" class="edge">
<title>16&#45;&gt;15</title>
<path fill="none" stroke="#c0c0c0" stroke-width="2" d="M1566,-143.8314C1566,-136.131 1566,-126.9743 1566,-118.4166"/>
<polygon fill="#c0c0c0" stroke="#c0c0c0" stroke-width="2" points="1569.5001,-118.4132 1566,-108.4133 1562.5001,-118.4133 1569.5001,-118.4132"/>
</g>
<!-- 17 -->
<g id="node18" class="node">
<title>17</title>
<path fill="none" stroke="#afd856" stroke-width="2" d="M1862,-108C1862,-108 1692,-108 1692,-108 1686,-108 1680,-102 1680,-96 1680,-96 1680,-84 1680,-84 1680,-78 1686,-72 1692,-72 1692,-72 1862,-72 1862,-72 1868,-72 1874,-78 1874,-84 1874,-84 1874,-96 1874,-96 1874,-102 1868,-108 1862,-108"/>
<text text-anchor="middle" x="1777" y="-93" font-family="sans" font-size="10.00" fill="#000000">fastqc_raw</text>
<text text-anchor="middle" x="1777" y="-82" font-family="sans" font-size="10.00" fill="#000000">accession: Liv&#45;01_S38_L005_R1_001</text>
</g>
<!-- 17&#45;&gt;0 -->
<g id="edge9" class="edge">
<title>17&#45;&gt;0</title>
<path fill="none" stroke="#c0c0c0" stroke-width="2" d="M1750.2517,-71.8314C1736.9447,-62.7927 1720.684,-51.7476 1706.3625,-42.0198"/>
<polygon fill="#c0c0c0" stroke="#c0c0c0" stroke-width="2" points="1707.9785,-38.8864 1697.7397,-36.1628 1704.0453,-44.677 1707.9785,-38.8864"/>
</g>
<!-- 18 -->
<g id="node19" class="node">
<title>18</title>
<path fill="none" stroke="#d85656" stroke-width="2" d="M1856,-180C1856,-180 1698,-180 1698,-180 1692,-180 1686,-174 1686,-168 1686,-168 1686,-156 1686,-156 1686,-150 1692,-144 1698,-144 1698,-144 1856,-144 1856,-144 1862,-144 1868,-150 1868,-156 1868,-156 1868,-168 1868,-168 1868,-174 1862,-180 1856,-180"/>
<text text-anchor="middle" x="1777" y="-165" font-family="sans" font-size="10.00" fill="#000000">cp_fq</text>
<text text-anchor="middle" x="1777" y="-154" font-family="sans" font-size="10.00" fill="#000000">sample: Liv&#45;01_S38_L005_R1_001</text>
</g>
<!-- 18&#45;&gt;17 -->
<g id="edge25" class="edge">
<title>18&#45;&gt;17</title>
<path fill="none" stroke="#c0c0c0" stroke-width="2" d="M1777,-143.8314C1777,-136.131 1777,-126.9743 1777,-118.4166"/>
<polygon fill="#c0c0c0" stroke="#c0c0c0" stroke-width="2" points="1780.5001,-118.4132 1777,-108.4133 1773.5001,-118.4133 1780.5001,-118.4132"/>
</g>
<!-- 19 -->
<g id="node20" class="node">
<title>19</title>
<path fill="none" stroke="#afd856" stroke-width="2" d="M2074,-108C2074,-108 1904,-108 1904,-108 1898,-108 1892,-102 1892,-96 1892,-96 1892,-84 1892,-84 1892,-78 1898,-72 1904,-72 1904,-72 2074,-72 2074,-72 2080,-72 2086,-78 2086,-84 2086,-84 2086,-96 2086,-96 2086,-102 2080,-108 2074,-108"/>
<text text-anchor="middle" x="1989" y="-93" font-family="sans" font-size="10.00" fill="#000000">fastqc_raw</text>
<text text-anchor="middle" x="1989" y="-82" font-family="sans" font-size="10.00" fill="#000000">accession: Liv&#45;01_S38_L005_R2_001</text>
</g>
<!-- 19&#45;&gt;0 -->
<g id="edge10" class="edge">
<title>19&#45;&gt;0</title>
<path fill="none" stroke="#c0c0c0" stroke-width="2" d="M1909.1656,-71.9243C1844.7547,-57.3407 1757.0731,-37.4883 1708.0612,-26.3912"/>
<polygon fill="#c0c0c0" stroke="#c0c0c0" stroke-width="2" points="1708.7379,-22.9559 1698.2118,-24.1612 1707.192,-29.7831 1708.7379,-22.9559"/>
</g>
<!-- 20 -->
<g id="node21" class="node">
<title>20</title>
<path fill="none" stroke="#d85656" stroke-width="2" d="M2068,-180C2068,-180 1910,-180 1910,-180 1904,-180 1898,-174 1898,-168 1898,-168 1898,-156 1898,-156 1898,-150 1904,-144 1910,-144 1910,-144 2068,-144 2068,-144 2074,-144 2080,-150 2080,-156 2080,-156 2080,-168 2080,-168 2080,-174 2074,-180 2068,-180"/>
<text text-anchor="middle" x="1989" y="-165" font-family="sans" font-size="10.00" fill="#000000">cp_fq</text>
<text text-anchor="middle" x="1989" y="-154" font-family="sans" font-size="10.00" fill="#000000">sample: Liv&#45;01_S38_L005_R2_001</text>
</g>
<!-- 20&#45;&gt;19 -->
<g id="edge26" class="edge">
<title>20&#45;&gt;19</title>
<path fill="none" stroke="#c0c0c0" stroke-width="2" d="M1989,-143.8314C1989,-136.131 1989,-126.9743 1989,-118.4166"/>
<polygon fill="#c0c0c0" stroke="#c0c0c0" stroke-width="2" points="1992.5001,-118.4132 1989,-108.4133 1985.5001,-118.4133 1992.5001,-118.4132"/>
</g>
<!-- 21 -->
<g id="node22" class="node">
<title>21</title>
<path fill="none" stroke="#afd856" stroke-width="2" d="M2286,-108C2286,-108 2116,-108 2116,-108 2110,-108 2104,-102 2104,-96 2104,-96 2104,-84 2104,-84 2104,-78 2110,-72 2116,-72 2116,-72 2286,-72 2286,-72 2292,-72 2298,-78 2298,-84 2298,-84 2298,-96 2298,-96 2298,-102 2292,-108 2286,-108"/>
<text text-anchor="middle" x="2201" y="-93" font-family="sans" font-size="10.00" fill="#000000">fastqc_raw</text>
<text text-anchor="middle" x="2201" y="-82" font-family="sans" font-size="10.00" fill="#000000">accession: Liv&#45;02_S39_L005_R1_001</text>
</g>
<!-- 21&#45;&gt;0 -->
<g id="edge11" class="edge">
<title>21&#45;&gt;0</title>
<path fill="none" stroke="#c0c0c0" stroke-width="2" d="M2103.9798,-73.359C2100.9532,-72.893 2097.9542,-72.4388 2095,-72 1952.6315,-50.8555 1782.6002,-30.7531 1708.5506,-22.2516"/>
<polygon fill="#c0c0c0" stroke="#c0c0c0" stroke-width="2" points="1708.6695,-18.7424 1698.3364,-21.0827 1707.8736,-25.6971 1708.6695,-18.7424"/>
</g>
<!-- 22 -->
<g id="node23" class="node">
<title>22</title>
<path fill="none" stroke="#d85656" stroke-width="2" d="M2280,-180C2280,-180 2122,-180 2122,-180 2116,-180 2110,-174 2110,-168 2110,-168 2110,-156 2110,-156 2110,-150 2116,-144 2122,-144 2122,-144 2280,-144 2280,-144 2286,-144 2292,-150 2292,-156 2292,-156 2292,-168 2292,-168 2292,-174 2286,-180 2280,-180"/>
<text text-anchor="middle" x="2201" y="-165" font-family="sans" font-size="10.00" fill="#000000">cp_fq</text>
<text text-anchor="middle" x="2201" y="-154" font-family="sans" font-size="10.00" fill="#000000">sample: Liv&#45;02_S39_L005_R1_001</text>
</g>
<!-- 22&#45;&gt;21 -->
<g id="edge27" class="edge">
<title>22&#45;&gt;21</title>
<path fill="none" stroke="#c0c0c0" stroke-width="2" d="M2201,-143.8314C2201,-136.131 2201,-126.9743 2201,-118.4166"/>
<polygon fill="#c0c0c0" stroke="#c0c0c0" stroke-width="2" points="2204.5001,-118.4132 2201,-108.4133 2197.5001,-118.4133 2204.5001,-118.4132"/>
</g>
<!-- 23 -->
<g id="node24" class="node">
<title>23</title>
<path fill="none" stroke="#afd856" stroke-width="2" d="M2498,-108C2498,-108 2328,-108 2328,-108 2322,-108 2316,-102 2316,-96 2316,-96 2316,-84 2316,-84 2316,-78 2322,-72 2328,-72 2328,-72 2498,-72 2498,-72 2504,-72 2510,-78 2510,-84 2510,-84 2510,-96 2510,-96 2510,-102 2504,-108 2498,-108"/>
<text text-anchor="middle" x="2413" y="-93" font-family="sans" font-size="10.00" fill="#000000">fastqc_raw</text>
<text text-anchor="middle" x="2413" y="-82" font-family="sans" font-size="10.00" fill="#000000">accession: Liv&#45;02_S39_L005_R2_001</text>
</g>
<!-- 23&#45;&gt;0 -->
<g id="edge12" class="edge">
<title>23&#45;&gt;0</title>
<path fill="none" stroke="#c0c0c0" stroke-width="2" d="M2315.7181,-73.1561C2312.7814,-72.7516 2309.8702,-72.3649 2307,-72 2080.2873,-43.1773 1806.0917,-25.748 1708.0554,-20.0609"/>
<polygon fill="#c0c0c0" stroke="#c0c0c0" stroke-width="2" points="1708.2357,-16.5656 1698.0513,-19.486 1707.834,-23.5541 1708.2357,-16.5656"/>
</g>
<!-- 24 -->
<g id="node25" class="node">
<title>24</title>
<path fill="none" stroke="#d85656" stroke-width="2" d="M2492,-180C2492,-180 2334,-180 2334,-180 2328,-180 2322,-174 2322,-168 2322,-168 2322,-156 2322,-156 2322,-150 2328,-144 2334,-144 2334,-144 2492,-144 2492,-144 2498,-144 2504,-150 2504,-156 2504,-156 2504,-168 2504,-168 2504,-174 2498,-180 2492,-180"/>
<text text-anchor="middle" x="2413" y="-165" font-family="sans" font-size="10.00" fill="#000000">cp_fq</text>
<text text-anchor="middle" x="2413" y="-154" font-family="sans" font-size="10.00" fill="#000000">sample: Liv&#45;02_S39_L005_R2_001</text>
</g>
<!-- 24&#45;&gt;23 -->
<g id="edge28" class="edge">
<title>24&#45;&gt;23</title>
<path fill="none" stroke="#c0c0c0" stroke-width="2" d="M2413,-143.8314C2413,-136.131 2413,-126.9743 2413,-118.4166"/>
<polygon fill="#c0c0c0" stroke="#c0c0c0" stroke-width="2" points="2416.5001,-118.4132 2413,-108.4133 2409.5001,-118.4133 2416.5001,-118.4132"/>
</g>
<!-- 25 -->
<g id="node26" class="node">
<title>25</title>
<path fill="none" stroke="#afd856" stroke-width="2" d="M2710,-108C2710,-108 2540,-108 2540,-108 2534,-108 2528,-102 2528,-96 2528,-96 2528,-84 2528,-84 2528,-78 2534,-72 2540,-72 2540,-72 2710,-72 2710,-72 2716,-72 2722,-78 2722,-84 2722,-84 2722,-96 2722,-96 2722,-102 2716,-108 2710,-108"/>
<text text-anchor="middle" x="2625" y="-93" font-family="sans" font-size="10.00" fill="#000000">fastqc_raw</text>
<text text-anchor="middle" x="2625" y="-82" font-family="sans" font-size="10.00" fill="#000000">accession: Liv&#45;03_S40_L005_R1_001</text>
</g>
<!-- 25&#45;&gt;0 -->
<g id="edge13" class="edge">
<title>25&#45;&gt;0</title>
<path fill="none" stroke="#c0c0c0" stroke-width="2" d="M2527.7279,-73.0758C2524.7883,-72.6946 2521.8739,-72.3346 2519,-72 2206.788,-35.6517 1826.8531,-22.4017 1708.2047,-18.9799"/>
<polygon fill="#c0c0c0" stroke="#c0c0c0" stroke-width="2" points="1708.2799,-15.4807 1698.185,-18.6966 1708.082,-22.4779 1708.2799,-15.4807"/>
</g>
<!-- 26 -->
<g id="node27" class="node">
<title>26</title>
<path fill="none" stroke="#d85656" stroke-width="2" d="M2704,-180C2704,-180 2546,-180 2546,-180 2540,-180 2534,-174 2534,-168 2534,-168 2534,-156 2534,-156 2534,-150 2540,-144 2546,-144 2546,-144 2704,-144 2704,-144 2710,-144 2716,-150 2716,-156 2716,-156 2716,-168 2716,-168 2716,-174 2710,-180 2704,-180"/>
<text text-anchor="middle" x="2625" y="-165" font-family="sans" font-size="10.00" fill="#000000">cp_fq</text>
<text text-anchor="middle" x="2625" y="-154" font-family="sans" font-size="10.00" fill="#000000">sample: Liv&#45;03_S40_L005_R1_001</text>
</g>
<!-- 26&#45;&gt;25 -->
<g id="edge29" class="edge">
<title>26&#45;&gt;25</title>
<path fill="none" stroke="#c0c0c0" stroke-width="2" d="M2625,-143.8314C2625,-136.131 2625,-126.9743 2625,-118.4166"/>
<polygon fill="#c0c0c0" stroke="#c0c0c0" stroke-width="2" points="2628.5001,-118.4132 2625,-108.4133 2621.5001,-118.4133 2628.5001,-118.4132"/>
</g>
<!-- 27 -->
<g id="node28" class="node">
<title>27</title>
<path fill="none" stroke="#afd856" stroke-width="2" d="M2922,-108C2922,-108 2752,-108 2752,-108 2746,-108 2740,-102 2740,-96 2740,-96 2740,-84 2740,-84 2740,-78 2746,-72 2752,-72 2752,-72 2922,-72 2922,-72 2928,-72 2934,-78 2934,-84 2934,-84 2934,-96 2934,-96 2934,-102 2928,-108 2922,-108"/>
<text text-anchor="middle" x="2837" y="-93" font-family="sans" font-size="10.00" fill="#000000">fastqc_raw</text>
<text text-anchor="middle" x="2837" y="-82" font-family="sans" font-size="10.00" fill="#000000">accession: Liv&#45;03_S40_L005_R2_001</text>
</g>
<!-- 27&#45;&gt;0 -->
<g id="edge14" class="edge">
<title>27&#45;&gt;0</title>
<path fill="none" stroke="#c0c0c0" stroke-width="2" d="M2739.7333,-73.0275C2736.7922,-72.6603 2733.8759,-72.3163 2731,-72 2332.4273,-28.1596 1845.551,-19.8328 1708.4791,-18.3212"/>
<polygon fill="#c0c0c0" stroke="#c0c0c0" stroke-width="2" points="1708.1573,-14.8178 1698.1212,-18.2128 1708.084,-21.8174 1708.1573,-14.8178"/>
</g>
<!-- 28 -->
<g id="node29" class="node">
<title>28</title>
<path fill="none" stroke="#d85656" stroke-width="2" d="M2916,-180C2916,-180 2758,-180 2758,-180 2752,-180 2746,-174 2746,-168 2746,-168 2746,-156 2746,-156 2746,-150 2752,-144 2758,-144 2758,-144 2916,-144 2916,-144 2922,-144 2928,-150 2928,-156 2928,-156 2928,-168 2928,-168 2928,-174 2922,-180 2916,-180"/>
<text text-anchor="middle" x="2837" y="-165" font-family="sans" font-size="10.00" fill="#000000">cp_fq</text>
<text text-anchor="middle" x="2837" y="-154" font-family="sans" font-size="10.00" fill="#000000">sample: Liv&#45;03_S40_L005_R2_001</text>
</g>
<!-- 28&#45;&gt;27 -->
<g id="edge30" class="edge">
<title>28&#45;&gt;27</title>
<path fill="none" stroke="#c0c0c0" stroke-width="2" d="M2837,-143.8314C2837,-136.131 2837,-126.9743 2837,-118.4166"/>
<polygon fill="#c0c0c0" stroke="#c0c0c0" stroke-width="2" points="2840.5001,-118.4132 2837,-108.4133 2833.5001,-118.4133 2840.5001,-118.4132"/>
</g>
<!-- 29 -->
<g id="node30" class="node">
<title>29</title>
<path fill="none" stroke="#afd856" stroke-width="2" d="M3134,-108C3134,-108 2964,-108 2964,-108 2958,-108 2952,-102 2952,-96 2952,-96 2952,-84 2952,-84 2952,-78 2958,-72 2964,-72 2964,-72 3134,-72 3134,-72 3140,-72 3146,-78 3146,-84 3146,-84 3146,-96 3146,-96 3146,-102 3140,-108 3134,-108"/>
<text text-anchor="middle" x="3049" y="-93" font-family="sans" font-size="10.00" fill="#000000">fastqc_raw</text>
<text text-anchor="middle" x="3049" y="-82" font-family="sans" font-size="10.00" fill="#000000">accession: Liv&#45;04_S41_L005_R1_001</text>
</g>
<!-- 29&#45;&gt;0 -->
<g id="edge15" class="edge">
<title>29&#45;&gt;0</title>
<path fill="none" stroke="#c0c0c0" stroke-width="2" d="M2951.7368,-72.9953C2948.7946,-72.6375 2945.8772,-72.3041 2943,-72 2694.2155,-45.7014 1890.8476,-23.6898 1708.1874,-18.9461"/>
<polygon fill="#c0c0c0" stroke="#c0c0c0" stroke-width="2" points="1708.1068,-15.4429 1698.0197,-18.6833 1707.9259,-22.4406 1708.1068,-15.4429"/>
</g>
<!-- 30 -->
<g id="node31" class="node">
<title>30</title>
<path fill="none" stroke="#d85656" stroke-width="2" d="M3128,-180C3128,-180 2970,-180 2970,-180 2964,-180 2958,-174 2958,-168 2958,-168 2958,-156 2958,-156 2958,-150 2964,-144 2970,-144 2970,-144 3128,-144 3128,-144 3134,-144 3140,-150 3140,-156 3140,-156 3140,-168 3140,-168 3140,-174 3134,-180 3128,-180"/>
<text text-anchor="middle" x="3049" y="-165" font-family="sans" font-size="10.00" fill="#000000">cp_fq</text>
<text text-anchor="middle" x="3049" y="-154" font-family="sans" font-size="10.00" fill="#000000">sample: Liv&#45;04_S41_L005_R1_001</text>
</g>
<!-- 30&#45;&gt;29 -->
<g id="edge31" class="edge">
<title>30&#45;&gt;29</title>
<path fill="none" stroke="#c0c0c0" stroke-width="2" d="M3049,-143.8314C3049,-136.131 3049,-126.9743 3049,-118.4166"/>
<polygon fill="#c0c0c0" stroke="#c0c0c0" stroke-width="2" points="3052.5001,-118.4132 3049,-108.4133 3045.5001,-118.4133 3052.5001,-118.4132"/>
</g>
<!-- 31 -->
<g id="node32" class="node">
<title>31</title>
<path fill="none" stroke="#afd856" stroke-width="2" d="M3346,-108C3346,-108 3176,-108 3176,-108 3170,-108 3164,-102 3164,-96 3164,-96 3164,-84 3164,-84 3164,-78 3170,-72 3176,-72 3176,-72 3346,-72 3346,-72 3352,-72 3358,-78 3358,-84 3358,-84 3358,-96 3358,-96 3358,-102 3352,-108 3346,-108"/>
<text text-anchor="middle" x="3261" y="-93" font-family="sans" font-size="10.00" fill="#000000">fastqc_raw</text>
<text text-anchor="middle" x="3261" y="-82" font-family="sans" font-size="10.00" fill="#000000">accession: Liv&#45;04_S41_L005_R2_001</text>
</g>
<!-- 31&#45;&gt;0 -->
<g id="edge16" class="edge">
<title>31&#45;&gt;0</title>
<path fill="none" stroke="#c0c0c0" stroke-width="2" d="M3163.7392,-72.9722C3160.7963,-72.6211 3157.8781,-72.2954 3155,-72 2861.7889,-41.9026 1908.4297,-22.4897 1708.133,-18.6864"/>
<polygon fill="#c0c0c0" stroke="#c0c0c0" stroke-width="2" points="1708.1772,-15.1867 1698.1129,-18.4972 1708.045,-22.1854 1708.1772,-15.1867"/>
</g>
<!-- 32 -->
<g id="node33" class="node">
<title>32</title>
<path fill="none" stroke="#d85656" stroke-width="2" d="M3340,-180C3340,-180 3182,-180 3182,-180 3176,-180 3170,-174 3170,-168 3170,-168 3170,-156 3170,-156 3170,-150 3176,-144 3182,-144 3182,-144 3340,-144 3340,-144 3346,-144 3352,-150 3352,-156 3352,-156 3352,-168 3352,-168 3352,-174 3346,-180 3340,-180"/>
<text text-anchor="middle" x="3261" y="-165" font-family="sans" font-size="10.00" fill="#000000">cp_fq</text>
<text text-anchor="middle" x="3261" y="-154" font-family="sans" font-size="10.00" fill="#000000">sample: Liv&#45;04_S41_L005_R2_001</text>
</g>
<!-- 32&#45;&gt;31 -->
<g id="edge32" class="edge">
<title>32&#45;&gt;31</title>
<path fill="none" stroke="#c0c0c0" stroke-width="2" d="M3261,-143.8314C3261,-136.131 3261,-126.9743 3261,-118.4166"/>
<polygon fill="#c0c0c0" stroke="#c0c0c0" stroke-width="2" points="3264.5001,-118.4132 3261,-108.4133 3257.5001,-118.4133 3264.5001,-118.4132"/>
</g>
</g>
</svg>
